<svg width="1200" height="420" viewBox="0 0 1200 420" fill="none" xmlns="http://www.w3.org/2000/svg" role="img" aria-label="persona-dash — personal growth dashboard on a Mingdao HAP backend">
  <defs>
    <linearGradient id="stone" x1="0" y1="0" x2="0" y2="420" gradientUnits="userSpaceOnUse">
      <stop offset="0" stop-color="#FAF5EC"/>
      <stop offset="0.55" stop-color="#F5EEDF"/>
      <stop offset="1" stop-color="#EFE4CD"/>
    </linearGradient>
    <linearGradient id="sheen45" x1="0" y1="420" x2="1200" y2="0" gradientUnits="userSpaceOnUse">
      <stop offset="0" stop-color="#FFFFFF" stop-opacity="0"/>
      <stop offset="0.5" stop-color="#FFFFFF" stop-opacity="0.07"/>
      <stop offset="1" stop-color="#FFFFFF" stop-opacity="0"/>
    </linearGradient>
    <radialGradient id="lamp" cx="600" cy="185" r="470" gradientUnits="userSpaceOnUse">
      <stop offset="0" stop-color="#FFFDF4" stop-opacity="0.65"/>
      <stop offset="0.6" stop-color="#FFFDF4" stop-opacity="0.25"/>
      <stop offset="1" stop-color="#FFFDF4" stop-opacity="0"/>
    </radialGradient>
    <radialGradient id="vig" cx="600" cy="210" r="660" gradientUnits="userSpaceOnUse">
      <stop offset="0.6" stop-color="#7A6A50" stop-opacity="0"/>
      <stop offset="1" stop-color="#7A6A50" stop-opacity="0.16"/>
    </radialGradient>
    <linearGradient id="ink" x1="0" y1="132" x2="0" y2="208" gradientUnits="userSpaceOnUse">
      <stop offset="0" stop-color="#292217"/>
      <stop offset="1" stop-color="#57472E"/>
    </linearGradient>
    <filter id="grainF" x="0" y="0" width="100%" height="100%">
      <feTurbulence type="fractalNoise" baseFrequency="0.8" numOctaves="2" stitchTiles="stitch"/>
      <feColorMatrix type="matrix" values="0 0 0 0 0.35  0 0 0 0 0.30  0 0 0 0 0.20  0 0 0 0.045 0"/>
    </filter>
    <filter id="drop" x="-20%" y="-20%" width="140%" height="160%">
      <feDropShadow dx="5.5" dy="6.5" stdDeviation="5" flood-color="#6B5B45" flood-opacity="0.38"/>
    </filter>
  </defs>

  <!-- honed ivory marble slab -->
  <rect width="1200" height="420" rx="28" fill="url(#stone)"/>


  <rect width="1200" height="420" rx="28" fill="url(#lamp)"/>
  <rect width="1200" height="420" rx="28" fill="url(#sheen45)"/>

  <!-- engraved dashboard icons -->
  <g transform="translate(88,58) rotate(-6) scale(3.2)" stroke="#7F8A70" stroke-opacity="0.32" stroke-width="1.44" fill="none" stroke-linecap="round" stroke-linejoin="round"><polyline points="22 7 13.5 15.5 8.5 10.5 2 17"/><polyline points="16 7 22 7 22 13"/></g>
  <g transform="translate(1014,330) rotate(5) scale(2.8)" stroke="#8A87A0" stroke-opacity="0.3" stroke-width="1.64" fill="none" stroke-linecap="round" stroke-linejoin="round"><line x1="6" y1="20" x2="6" y2="14"/><line x1="12" y1="20" x2="12" y2="8"/><line x1="18" y1="20" x2="18" y2="4"/></g>

  <rect width="1200" height="420" rx="28" fill="url(#vig)"/>

  <!-- wordmark: espresso-bronze chunky letters with 45-degree warm shadow -->
  <g fill="url(#ink)" filter="url(#drop)">
<g id="wordmark" transform="translate(140.0,206) scale(0.10388,-0.10388)">
<path transform="translate(0.0,0)" d="M460 688Q524 688 574 658.5Q624 629 652 577.5Q680 526 680 462L680 449Q680 385 652 333Q624 281 574 251.5Q524 222 460 222L295 222L295 0L74 0L74 688L460 688ZM295 383L386 383Q421 383 438.5 401Q456 419 456 450L456 458Q456 490 438.5 507.5Q421 525 386 525L295 525Z"/>
<path transform="translate(729.0,0)" d="M74 688L669 688L669 523L295 523L295 428L615 428L615 270L295 270L295 165L676 165L676 0L74 0Z"/>
<path transform="translate(1458.0,0)" d="M727 477Q727 414 693 363Q659 312 594 288L747 0L499 0L377 251L295 251L295 0L74 0L74 688L495 688Q569 688 621.5 659.5Q674 631 700.5 582.5Q727 534 727 477ZM502 468Q502 495 484 513Q466 531 440 531L295 531L295 404L440 404Q466 404 484 422.5Q502 441 502 468Z"/>
<path transform="translate(2243.0,0)" d="M363 700Q495 700 580 646.5Q665 593 667 488L667 476L460 476L460 480Q460 510 438 530Q416 550 371 550Q327 550 303.5 537Q280 524 280 505Q280 478 312 465Q344 452 415 438Q498 421 551.5 402.5Q605 384 645 342Q685 300 686 228Q686 106 603.5 47Q521 -12 383 -12Q222 -12 132.5 42Q43 96 43 233L252 233Q252 181 279 163.5Q306 146 363 146Q405 146 432.5 155Q460 164 460 192Q460 217 429.5 229.5Q399 242 330 256Q246 274 191 293.5Q136 313 95 358Q54 403 54 480Q54 593 141.5 646.5Q229 700 363 700Z"/>
<path transform="translate(2972.0,0)" d="M416 700Q594 700 691 609Q788 518 788 344Q788 170 691 79Q594 -12 416 -12Q238 -12 141.5 78.5Q45 169 45 344Q45 519 141.5 609.5Q238 700 416 700ZM416 535Q345 535 308 492Q271 449 271 376L271 312Q271 239 308 196Q345 153 416 153Q487 153 524.5 196Q562 239 562 312L562 376Q562 449 524.5 492Q487 535 416 535Z"/>
<path transform="translate(3812.0,0)" d="M566 0L277 334L277 0L74 0L74 688L267 688L556 349L556 688L759 688L759 0Z"/>
<path transform="translate(4642.0,0)" d="M535 0L506 97L265 97L236 0L10 0L261 688L518 688L769 0ZM311 251L460 251L388 496L384 496Z"/>
<path transform="translate(5767.0,0)" d="M372 688Q733 688 733 344Q733 0 372 0L74 0L74 688L372 688ZM295 165L368 165Q507 165 507 314L507 374Q507 523 368 523L295 523Z"/>
<path transform="translate(6509.0,0)" d="M535 0L506 97L265 97L236 0L10 0L261 688L518 688L769 0ZM311 251L460 251L388 496L384 496Z"/>
<path transform="translate(7294.0,0)" d="M363 700Q495 700 580 646.5Q665 593 667 488L667 476L460 476L460 480Q460 510 438 530Q416 550 371 550Q327 550 303.5 537Q280 524 280 505Q280 478 312 465Q344 452 415 438Q498 421 551.5 402.5Q605 384 645 342Q685 300 686 228Q686 106 603.5 47Q521 -12 383 -12Q222 -12 132.5 42Q43 96 43 233L252 233Q252 181 279 163.5Q306 146 363 146Q405 146 432.5 155Q460 164 460 192Q460 217 429.5 229.5Q399 242 330 256Q246 274 191 293.5Q136 313 95 358Q54 403 54 480Q54 593 141.5 646.5Q229 700 363 700Z"/>
<path transform="translate(8023.0,0)" d="M538 0L538 261L295 261L295 0L74 0L74 688L295 688L295 437L538 437L538 688L759 688L759 0Z"/>
</g>
  </g>

  <!-- drafting title block: green pad, white line frame -->
  <g>
    <rect x="484" y="254" width="232" height="34" rx="5" fill="#2F6650"/>
    <rect x="488.5" y="258.5" width="223" height="25" rx="3" fill="none" stroke="#F5F2E9" stroke-opacity="0.75"/>
    <text x="600" y="277" text-anchor="middle" fill="#F5F2E9"
          font-family="Georgia,'Times New Roman',serif" font-size="14" letter-spacing="6">BY JQU224</text>
  </g>

  <text x="600" y="328" text-anchor="middle"
        font-family="ui-monospace,'SF Mono',Menlo,Consolas,monospace"
        font-size="16" letter-spacing="4" fill="#857C6C">MINGDAO HAP &#183; GLM-4-FLASH &#183; AI IN THE LOOP</text>

  <!-- honed grain -->
  <rect width="1200" height="420" rx="28" filter="url(#grainF)" opacity="0.7"/>
  <rect x="0.5" y="0.5" width="1199" height="419" rx="27.5" stroke="#6B5B45" stroke-opacity="0.15"/>
</svg>
